<mxfile host="Electron" agent="Mozilla/5.0 (Windows NT 10.0; Win64; x64) AppleWebKit/537.36 (KHTML, like Gecko) draw.io/24.7.17 Chrome/128.0.6613.36 Electron/32.0.1 Safari/537.36" version="24.7.17">
  <diagram name="第 1 页" id="G0WQwA9LCmhWkQZ7xDOT">
    <mxGraphModel dx="1702" dy="1200" grid="1" gridSize="10" guides="1" tooltips="1" connect="1" arrows="1" fold="1" page="1" pageScale="1" pageWidth="827" pageHeight="1169" math="0" shadow="0">
      <root>
        <mxCell id="0" />
        <mxCell id="1" parent="0" />
        <mxCell id="hfyCx-_I7eWdj9u1ATzK-2" value="1" style="whiteSpace=wrap;html=1;aspect=fixed;" vertex="1" parent="1">
          <mxGeometry x="360" y="100" width="80" height="80" as="geometry" />
        </mxCell>
        <mxCell id="hfyCx-_I7eWdj9u1ATzK-3" value="2" style="whiteSpace=wrap;html=1;aspect=fixed;" vertex="1" parent="1">
          <mxGeometry x="360" y="260" width="80" height="80" as="geometry" />
        </mxCell>
        <mxCell id="hfyCx-_I7eWdj9u1ATzK-4" value="3" style="whiteSpace=wrap;html=1;aspect=fixed;" vertex="1" parent="1">
          <mxGeometry x="180" y="410" width="80" height="80" as="geometry" />
        </mxCell>
        <mxCell id="hfyCx-_I7eWdj9u1ATzK-5" value="4" style="whiteSpace=wrap;html=1;aspect=fixed;" vertex="1" parent="1">
          <mxGeometry x="180" y="550" width="80" height="80" as="geometry" />
        </mxCell>
        <mxCell id="hfyCx-_I7eWdj9u1ATzK-6" value="5" style="whiteSpace=wrap;html=1;aspect=fixed;" vertex="1" parent="1">
          <mxGeometry x="180" y="720" width="80" height="80" as="geometry" />
        </mxCell>
        <mxCell id="hfyCx-_I7eWdj9u1ATzK-7" value="7" style="whiteSpace=wrap;html=1;aspect=fixed;" vertex="1" parent="1">
          <mxGeometry x="30" y="920" width="80" height="80" as="geometry" />
        </mxCell>
        <mxCell id="hfyCx-_I7eWdj9u1ATzK-8" value="6" style="whiteSpace=wrap;html=1;aspect=fixed;" vertex="1" parent="1">
          <mxGeometry x="350" y="920" width="80" height="80" as="geometry" />
        </mxCell>
        <mxCell id="hfyCx-_I7eWdj9u1ATzK-9" value="" style="endArrow=classic;html=1;rounded=0;exitX=0.5;exitY=1;exitDx=0;exitDy=0;entryX=0.5;entryY=0;entryDx=0;entryDy=0;" edge="1" parent="1" source="hfyCx-_I7eWdj9u1ATzK-5" target="hfyCx-_I7eWdj9u1ATzK-6">
          <mxGeometry width="50" height="50" relative="1" as="geometry">
            <mxPoint x="390" y="585" as="sourcePoint" />
            <mxPoint x="440" y="535" as="targetPoint" />
          </mxGeometry>
        </mxCell>
        <mxCell id="hfyCx-_I7eWdj9u1ATzK-10" value="" style="endArrow=classic;html=1;rounded=0;exitX=0.5;exitY=1;exitDx=0;exitDy=0;entryX=0.5;entryY=0;entryDx=0;entryDy=0;" edge="1" parent="1" source="hfyCx-_I7eWdj9u1ATzK-4" target="hfyCx-_I7eWdj9u1ATzK-5">
          <mxGeometry width="50" height="50" relative="1" as="geometry">
            <mxPoint x="340" y="490" as="sourcePoint" />
            <mxPoint x="390" y="440" as="targetPoint" />
          </mxGeometry>
        </mxCell>
        <mxCell id="hfyCx-_I7eWdj9u1ATzK-11" value="" style="endArrow=classic;html=1;rounded=0;exitX=0.5;exitY=1;exitDx=0;exitDy=0;entryX=0.5;entryY=0;entryDx=0;entryDy=0;" edge="1" parent="1" source="hfyCx-_I7eWdj9u1ATzK-3" target="hfyCx-_I7eWdj9u1ATzK-4">
          <mxGeometry width="50" height="50" relative="1" as="geometry">
            <mxPoint x="240" y="300" as="sourcePoint" />
            <mxPoint x="290" y="250" as="targetPoint" />
          </mxGeometry>
        </mxCell>
        <mxCell id="hfyCx-_I7eWdj9u1ATzK-12" value="" style="endArrow=classic;html=1;rounded=0;exitX=0.5;exitY=1;exitDx=0;exitDy=0;entryX=0.5;entryY=0;entryDx=0;entryDy=0;" edge="1" parent="1" source="hfyCx-_I7eWdj9u1ATzK-2" target="hfyCx-_I7eWdj9u1ATzK-3">
          <mxGeometry width="50" height="50" relative="1" as="geometry">
            <mxPoint x="320" y="240" as="sourcePoint" />
            <mxPoint x="370" y="190" as="targetPoint" />
          </mxGeometry>
        </mxCell>
        <mxCell id="hfyCx-_I7eWdj9u1ATzK-13" value="" style="endArrow=classic;html=1;rounded=0;exitX=0.5;exitY=1;exitDx=0;exitDy=0;entryX=0.5;entryY=0;entryDx=0;entryDy=0;" edge="1" parent="1" source="hfyCx-_I7eWdj9u1ATzK-6" target="hfyCx-_I7eWdj9u1ATzK-7">
          <mxGeometry width="50" height="50" relative="1" as="geometry">
            <mxPoint x="140" y="880" as="sourcePoint" />
            <mxPoint x="190" y="830" as="targetPoint" />
          </mxGeometry>
        </mxCell>
        <mxCell id="hfyCx-_I7eWdj9u1ATzK-14" value="" style="endArrow=classic;html=1;rounded=0;exitX=0.5;exitY=1;exitDx=0;exitDy=0;entryX=0.5;entryY=0;entryDx=0;entryDy=0;" edge="1" parent="1" source="hfyCx-_I7eWdj9u1ATzK-6" target="hfyCx-_I7eWdj9u1ATzK-8">
          <mxGeometry width="50" height="50" relative="1" as="geometry">
            <mxPoint x="230" y="910" as="sourcePoint" />
            <mxPoint x="280" y="860" as="targetPoint" />
          </mxGeometry>
        </mxCell>
        <mxCell id="hfyCx-_I7eWdj9u1ATzK-15" value="" style="endArrow=classic;html=1;rounded=0;exitX=0;exitY=0.5;exitDx=0;exitDy=0;entryX=1;entryY=0.5;entryDx=0;entryDy=0;" edge="1" parent="1" source="hfyCx-_I7eWdj9u1ATzK-8" target="hfyCx-_I7eWdj9u1ATzK-7">
          <mxGeometry width="50" height="50" relative="1" as="geometry">
            <mxPoint x="170" y="1000" as="sourcePoint" />
            <mxPoint x="220" y="950" as="targetPoint" />
          </mxGeometry>
        </mxCell>
        <mxCell id="hfyCx-_I7eWdj9u1ATzK-16" value="8" style="whiteSpace=wrap;html=1;aspect=fixed;" vertex="1" parent="1">
          <mxGeometry x="350" y="1070" width="80" height="80" as="geometry" />
        </mxCell>
        <mxCell id="hfyCx-_I7eWdj9u1ATzK-17" value="" style="endArrow=classic;html=1;rounded=0;exitX=0.5;exitY=1;exitDx=0;exitDy=0;entryX=0.5;entryY=0;entryDx=0;entryDy=0;" edge="1" parent="1" source="hfyCx-_I7eWdj9u1ATzK-8" target="hfyCx-_I7eWdj9u1ATzK-16">
          <mxGeometry width="50" height="50" relative="1" as="geometry">
            <mxPoint x="280" y="1090" as="sourcePoint" />
            <mxPoint x="330" y="1040" as="targetPoint" />
          </mxGeometry>
        </mxCell>
        <mxCell id="hfyCx-_I7eWdj9u1ATzK-18" value="10" style="whiteSpace=wrap;html=1;aspect=fixed;" vertex="1" parent="1">
          <mxGeometry x="470" y="1220" width="80" height="80" as="geometry" />
        </mxCell>
        <mxCell id="hfyCx-_I7eWdj9u1ATzK-19" value="9" style="whiteSpace=wrap;html=1;aspect=fixed;" vertex="1" parent="1">
          <mxGeometry x="250" y="1220" width="80" height="80" as="geometry" />
        </mxCell>
        <mxCell id="hfyCx-_I7eWdj9u1ATzK-21" value="" style="endArrow=classic;html=1;rounded=0;exitX=0.5;exitY=1;exitDx=0;exitDy=0;entryX=0.5;entryY=0;entryDx=0;entryDy=0;" edge="1" parent="1" source="hfyCx-_I7eWdj9u1ATzK-16" target="hfyCx-_I7eWdj9u1ATzK-19">
          <mxGeometry width="50" height="50" relative="1" as="geometry">
            <mxPoint x="364" y="1230" as="sourcePoint" />
            <mxPoint x="414" y="1180" as="targetPoint" />
          </mxGeometry>
        </mxCell>
        <mxCell id="hfyCx-_I7eWdj9u1ATzK-22" value="" style="endArrow=classic;html=1;rounded=0;exitX=0.5;exitY=1;exitDx=0;exitDy=0;entryX=0.5;entryY=0;entryDx=0;entryDy=0;" edge="1" parent="1" source="hfyCx-_I7eWdj9u1ATzK-16" target="hfyCx-_I7eWdj9u1ATzK-18">
          <mxGeometry width="50" height="50" relative="1" as="geometry">
            <mxPoint x="500" y="1210" as="sourcePoint" />
            <mxPoint x="550" y="1160" as="targetPoint" />
          </mxGeometry>
        </mxCell>
        <mxCell id="hfyCx-_I7eWdj9u1ATzK-23" value="" style="endArrow=classic;html=1;rounded=0;exitX=1;exitY=0.5;exitDx=0;exitDy=0;entryX=0;entryY=0.5;entryDx=0;entryDy=0;" edge="1" parent="1" source="hfyCx-_I7eWdj9u1ATzK-19" target="hfyCx-_I7eWdj9u1ATzK-18">
          <mxGeometry width="50" height="50" relative="1" as="geometry">
            <mxPoint x="390" y="1330" as="sourcePoint" />
            <mxPoint x="440" y="1280" as="targetPoint" />
          </mxGeometry>
        </mxCell>
        <mxCell id="hfyCx-_I7eWdj9u1ATzK-24" value="11" style="whiteSpace=wrap;html=1;aspect=fixed;" vertex="1" parent="1">
          <mxGeometry x="350" y="1370" width="80" height="80" as="geometry" />
        </mxCell>
        <mxCell id="hfyCx-_I7eWdj9u1ATzK-25" value="" style="endArrow=classic;html=1;rounded=0;exitX=0.5;exitY=1;exitDx=0;exitDy=0;" edge="1" parent="1" source="hfyCx-_I7eWdj9u1ATzK-18">
          <mxGeometry width="50" height="50" relative="1" as="geometry">
            <mxPoint x="390" y="1330" as="sourcePoint" />
            <mxPoint x="390" y="1370" as="targetPoint" />
          </mxGeometry>
        </mxCell>
        <mxCell id="hfyCx-_I7eWdj9u1ATzK-26" value="" style="endArrow=classic;html=1;rounded=0;exitX=0.5;exitY=1;exitDx=0;exitDy=0;entryX=0.5;entryY=0;entryDx=0;entryDy=0;" edge="1" parent="1" source="hfyCx-_I7eWdj9u1ATzK-19" target="hfyCx-_I7eWdj9u1ATzK-24">
          <mxGeometry width="50" height="50" relative="1" as="geometry">
            <mxPoint x="250" y="1360" as="sourcePoint" />
            <mxPoint x="330" y="1320" as="targetPoint" />
          </mxGeometry>
        </mxCell>
        <mxCell id="hfyCx-_I7eWdj9u1ATzK-27" value="12" style="whiteSpace=wrap;html=1;aspect=fixed;" vertex="1" parent="1">
          <mxGeometry x="730" y="550" width="80" height="80" as="geometry" />
        </mxCell>
        <mxCell id="hfyCx-_I7eWdj9u1ATzK-28" value="" style="endArrow=classic;html=1;rounded=0;exitX=0.5;exitY=1;exitDx=0;exitDy=0;entryX=0.5;entryY=0;entryDx=0;entryDy=0;" edge="1" parent="1" source="hfyCx-_I7eWdj9u1ATzK-4" target="hfyCx-_I7eWdj9u1ATzK-27">
          <mxGeometry width="50" height="50" relative="1" as="geometry">
            <mxPoint x="600" y="450" as="sourcePoint" />
            <mxPoint x="650" y="400" as="targetPoint" />
          </mxGeometry>
        </mxCell>
        <mxCell id="hfyCx-_I7eWdj9u1ATzK-29" value="" style="endArrow=classic;html=1;rounded=0;entryX=0.5;entryY=0;entryDx=0;entryDy=0;" edge="1" parent="1" target="hfyCx-_I7eWdj9u1ATzK-27">
          <mxGeometry width="50" height="50" relative="1" as="geometry">
            <mxPoint x="400" y="340" as="sourcePoint" />
            <mxPoint x="740" y="550" as="targetPoint" />
          </mxGeometry>
        </mxCell>
        <mxCell id="hfyCx-_I7eWdj9u1ATzK-30" value="" style="endArrow=classic;html=1;rounded=0;exitX=1;exitY=0.5;exitDx=0;exitDy=0;entryX=0;entryY=0.5;entryDx=0;entryDy=0;" edge="1" parent="1" source="hfyCx-_I7eWdj9u1ATzK-24" target="hfyCx-_I7eWdj9u1ATzK-27">
          <mxGeometry width="50" height="50" relative="1" as="geometry">
            <mxPoint x="690" y="1230" as="sourcePoint" />
            <mxPoint x="610" y="930" as="targetPoint" />
            <Array as="points">
              <mxPoint x="610" y="1410" />
              <mxPoint x="630" y="590" />
            </Array>
          </mxGeometry>
        </mxCell>
        <mxCell id="hfyCx-_I7eWdj9u1ATzK-31" value="14" style="whiteSpace=wrap;html=1;aspect=fixed;" vertex="1" parent="1">
          <mxGeometry x="870" y="730" width="80" height="80" as="geometry" />
        </mxCell>
        <mxCell id="hfyCx-_I7eWdj9u1ATzK-32" value="13" style="whiteSpace=wrap;html=1;aspect=fixed;" vertex="1" parent="1">
          <mxGeometry x="670" y="730" width="80" height="80" as="geometry" />
        </mxCell>
        <mxCell id="hfyCx-_I7eWdj9u1ATzK-33" value="" style="endArrow=classic;html=1;rounded=0;exitX=0.5;exitY=1;exitDx=0;exitDy=0;entryX=0.5;entryY=0;entryDx=0;entryDy=0;" edge="1" parent="1" source="hfyCx-_I7eWdj9u1ATzK-27" target="hfyCx-_I7eWdj9u1ATzK-32">
          <mxGeometry width="50" height="50" relative="1" as="geometry">
            <mxPoint x="777" y="710" as="sourcePoint" />
            <mxPoint x="827" y="660" as="targetPoint" />
          </mxGeometry>
        </mxCell>
        <mxCell id="hfyCx-_I7eWdj9u1ATzK-34" value="" style="endArrow=classic;html=1;rounded=0;entryX=0.5;entryY=0;entryDx=0;entryDy=0;" edge="1" parent="1" target="hfyCx-_I7eWdj9u1ATzK-31">
          <mxGeometry width="50" height="50" relative="1" as="geometry">
            <mxPoint x="770" y="630" as="sourcePoint" />
            <mxPoint x="960" y="630" as="targetPoint" />
          </mxGeometry>
        </mxCell>
        <mxCell id="hfyCx-_I7eWdj9u1ATzK-35" value="" style="endArrow=classic;html=1;rounded=0;exitX=1;exitY=0.5;exitDx=0;exitDy=0;entryX=0;entryY=0.5;entryDx=0;entryDy=0;" edge="1" parent="1" source="hfyCx-_I7eWdj9u1ATzK-32" target="hfyCx-_I7eWdj9u1ATzK-31">
          <mxGeometry width="50" height="50" relative="1" as="geometry">
            <mxPoint x="777" y="860" as="sourcePoint" />
            <mxPoint x="827" y="810" as="targetPoint" />
          </mxGeometry>
        </mxCell>
        <mxCell id="hfyCx-_I7eWdj9u1ATzK-36" value="15" style="whiteSpace=wrap;html=1;aspect=fixed;" vertex="1" parent="1">
          <mxGeometry x="770" y="950" width="80" height="80" as="geometry" />
        </mxCell>
        <mxCell id="hfyCx-_I7eWdj9u1ATzK-37" value="" style="endArrow=classic;html=1;rounded=0;exitX=0.5;exitY=1;exitDx=0;exitDy=0;entryX=0.5;entryY=0;entryDx=0;entryDy=0;" edge="1" parent="1" source="hfyCx-_I7eWdj9u1ATzK-32" target="hfyCx-_I7eWdj9u1ATzK-36">
          <mxGeometry width="50" height="50" relative="1" as="geometry">
            <mxPoint x="690" y="920" as="sourcePoint" />
            <mxPoint x="740" y="870" as="targetPoint" />
          </mxGeometry>
        </mxCell>
        <mxCell id="hfyCx-_I7eWdj9u1ATzK-38" value="" style="endArrow=classic;html=1;rounded=0;exitX=0.5;exitY=1;exitDx=0;exitDy=0;entryX=0.5;entryY=0;entryDx=0;entryDy=0;" edge="1" parent="1" source="hfyCx-_I7eWdj9u1ATzK-31" target="hfyCx-_I7eWdj9u1ATzK-36">
          <mxGeometry width="50" height="50" relative="1" as="geometry">
            <mxPoint x="810" y="900" as="sourcePoint" />
            <mxPoint x="860" y="850" as="targetPoint" />
          </mxGeometry>
        </mxCell>
      </root>
    </mxGraphModel>
  </diagram>
</mxfile>
